<?xml version="1.0" encoding="UTF-8" standalone="no"?>
<!-- Created with Inkscape (http://www.inkscape.org/) -->

<svg
   xmlns:dc="http://purl.org/dc/elements/1.1/"
   xmlns:cc="http://creativecommons.org/ns#"
   xmlns:rdf="http://www.w3.org/1999/02/22-rdf-syntax-ns#"
   xmlns:svg="http://www.w3.org/2000/svg"
   xmlns="http://www.w3.org/2000/svg"
   xmlns:sodipodi="http://sodipodi.sourceforge.net/DTD/sodipodi-0.dtd"
   xmlns:inkscape="http://www.inkscape.org/namespaces/inkscape"
   width="210mm"
   height="297mm"
   viewBox="0 0 210 297"
   version="1.1"
   id="svg66"
   inkscape:version="0.92.4 (5da689c313, 2019-01-14)"
   sodipodi:docname="logo.svg">
  <defs
     id="defs60">
    <inkscape:perspective
       sodipodi:type="inkscape:persp3d"
       inkscape:vp_x="1.5210367 : 478.59241 : 1"
       inkscape:vp_y="0 : 2589.1679 : 0"
       inkscape:vp_z="787.65924 : 731.08253 : 1"
       inkscape:persp3d-origin="384.99624 : 334.7703 : 1"
       id="perspective241" />
    <inkscape:perspective
       sodipodi:type="inkscape:persp3d"
       inkscape:vp_x="-11.807437 : -81.83775 : 1"
       inkscape:vp_y="0 : 2821.9395 : 0"
       inkscape:vp_z="382.19921 : 180.55224 : 1"
       inkscape:persp3d-origin="179.71968 : -238.58978 : 1"
       id="perspective121" />
  </defs>
  <sodipodi:namedview
     id="base"
     pagecolor="#ffffff"
     bordercolor="#666666"
     borderopacity="1.0"
     inkscape:pageopacity="0.0"
     inkscape:pageshadow="2"
     inkscape:zoom="0.35"
     inkscape:cx="782.0135"
     inkscape:cy="420.68662"
     inkscape:document-units="mm"
     inkscape:current-layer="layer1"
     showgrid="false"
     inkscape:snap-text-baseline="true"
     inkscape:window-width="1366"
     inkscape:window-height="706"
     inkscape:window-x="-8"
     inkscape:window-y="-8"
     inkscape:window-maximized="1" />
  <metadata
     id="metadata63">
    <rdf:RDF>
      <cc:Work
         rdf:about="">
        <dc:format>image/svg+xml</dc:format>
        <dc:type
           rdf:resource="http://purl.org/dc/dcmitype/StillImage" />
        <dc:title></dc:title>
      </cc:Work>
    </rdf:RDF>
  </metadata>
  <g
     inkscape:label="Capa 1"
     inkscape:groupmode="layer"
     id="layer1">
    <g
       id="g3913">
      <path
         inkscape:connector-curvature="0"
         d="m 11.466711,212.79506 v 0.58915 h 0.132894 c -0.04821,-0.1963 -0.08901,-0.3929 -0.132894,-0.58915 z"
         style="stroke-width:0.59813476"
         id="rect68" />
      <path
         id="flowRoot89"
         transform="scale(0.26458333)"
         d="M 109.96875 222.22266 L 84.011719 397.30078 L 111.47852 397.30078 L 129.13672 277.95703 L 139.09766 356.14844 L 159.09375 356.14844 L 189.95703 282.77734 L 172.97852 397.30078 L 201.95508 397.30078 L 227.91211 222.22266 L 193.73047 222.22266 L 155.54688 310.05664 L 143.24805 222.22266 L 109.96875 222.22266 z M 256.36133 222.22266 L 230.40234 397.30078 L 311.82422 397.30078 L 316.65234 364.14258 L 264.20898 364.14258 L 270.77344 319.93359 L 319.44531 319.93359 L 324.42578 286.6582 L 275.75391 286.6582 L 280.43359 255.38086 L 332.87695 255.38086 L 337.78125 222.22266 L 256.36133 222.22266 z M 362.00391 222.22266 L 336.04688 397.30078 L 363.51367 397.30078 L 381.17188 277.95703 L 391.13086 356.14844 L 411.12891 356.14844 L 441.99219 282.77734 L 425.01367 397.30078 L 453.99023 397.30078 L 479.94727 222.22266 L 445.76367 222.22266 L 407.58203 310.05664 L 395.28125 222.22266 L 362.00391 222.22266 z M 497.30273 222.22266 L 492.32227 256.08594 L 527.33594 256.08594 L 506.43359 397.30078 L 535.56055 397.30078 L 556.46289 256.08594 L 591.47656 256.08594 L 596.45703 222.22266 L 497.30273 222.22266 z "
         style="font-style:normal;font-weight:normal;font-size:40px;line-height:1.25;font-family:sans-serif;letter-spacing:0px;word-spacing:0px;fill:#4d4d4d;fill-opacity:1;stroke:none;stroke-width:2.26066685" />
      <flowRoot
         style="fill:black;fill-opacity:1;stroke:none;font-family:sans-serif;font-style:italic;font-weight:bold;font-size:40px;line-height:1.25;letter-spacing:0px;word-spacing:0px;-inkscape-font-specification:'sans-serif Bold Italic';font-stretch:normal;font-variant:normal;"
         id="flowRoot97"
         xml:space="preserve"><flowRegion
           style="-inkscape-font-specification:'sans-serif Bold Italic';font-family:sans-serif;font-weight:bold;font-style:italic;font-stretch:normal;font-variant:normal;"
           id="flowRegion99"><rect
             style="-inkscape-font-specification:'sans-serif Bold Italic';font-family:sans-serif;font-weight:bold;font-style:italic;font-stretch:normal;font-variant:normal;"
             y="88.233971"
             x="60"
             height="51.42857"
             width="128.57143"
             id="rect101" /></flowRegion><flowPara
           id="flowPara103" /></flowRoot>      <g
         inkscape:corner7="7.6809964 : 0.61278851 : 0.25 : 1"
         inkscape:corner0="9.6844339 : 1.2034645 : 0 : 1"
         inkscape:perspectiveID="#perspective121"
         style="fill:#552200"
         id="g123"
         sodipodi:type="inkscape:box3d">
        <path
           points="6.1183717,231.66102 14.716916,229.02683 14.716916,76.586217 6.1183717,75.653516 "
           d="M 6.1183717,75.653516 V 231.66102 l 8.5985443,-2.63419 V 76.586217 Z"
           inkscape:box3dsidetype="6"
           style="fill:#353564;fill-rule:evenodd;stroke:none;stroke-width:2.26066685;stroke-linejoin:round"
           id="path125"
           sodipodi:type="inkscape:box3dside" />
        <path
           points="20.666967,8.7839222 20.666967,195.42064 14.716916,229.02683 14.716916,76.586217 "
           d="M 14.716916,76.586217 20.666967,8.7839222 V 195.42064 l -5.950051,33.60619 z"
           inkscape:box3dsidetype="11"
           style="fill:#e9e9ff;fill-rule:evenodd;stroke:none;stroke-width:2.26066685;stroke-linejoin:round"
           id="path135"
           sodipodi:type="inkscape:box3dside" />
        <path
           points="10.255367,5.683361 20.666967,8.7839222 14.716916,76.586217 6.1183717,75.653516 "
           d="M 6.1183717,75.653516 10.255367,5.683361 20.666967,8.7839222 14.716916,76.586217 Z"
           inkscape:box3dsidetype="5"
           style="fill:#4d4d9f;fill-rule:evenodd;stroke:none;stroke-width:2.26066685;stroke-linejoin:round"
           id="path127"
           sodipodi:type="inkscape:box3dside" />
        <path
           points="10.255367,197.69494 20.666967,195.42064 14.716916,229.02683 6.1183717,231.66102 "
           d="m 6.1183717,231.66102 4.1369953,-33.96608 10.4116,-2.2743 -5.950051,33.60619 z"
           inkscape:box3dsidetype="13"
           style="fill:#afafde;fill-rule:evenodd;stroke:none;stroke-width:2.26066685;stroke-linejoin:round"
           id="path133"
           sodipodi:type="inkscape:box3dside" />
        <path
           points="10.255367,197.69494 20.666967,195.42064 20.666967,8.7839222 10.255367,5.683361 "
           d="M 10.255367,5.683361 V 197.69494 l 10.4116,-2.2743 V 8.7839222 Z"
           inkscape:box3dsidetype="14"
           style="fill:#d7d7ff;fill-rule:evenodd;stroke:none;stroke-width:2.26066685;stroke-linejoin:round"
           id="path131"
           sodipodi:type="inkscape:box3dside" />
        <path
           points="10.255367,5.683361 10.255367,197.69494 6.1183717,231.66102 6.1183717,75.653516 "
           d="M 6.1183717,75.653516 10.255367,5.683361 V 197.69494 l -4.1369953,33.96608 z"
           inkscape:box3dsidetype="3"
           style="fill:#8686bf;fill-rule:evenodd;stroke:none;stroke-width:2.26066685;stroke-linejoin:round"
           id="path129"
           sodipodi:type="inkscape:box3dside" />
      </g>
      <g
         inkscape:corner7="4.9047553 : 0.44008768 : 5.0307186 : 1"
         inkscape:corner0="4.829021 : 0.62094283 : 0 : 1"
         inkscape:perspectiveID="#perspective121"
         style="fill:#552200"
         id="g257"
         sodipodi:type="inkscape:box3d">
        <path
           points="21.050074,192.67463 188.35056,157.36292 188.35056,110.36711 21.050074,105.11922 "
           d="m 21.050074,105.11922 v 87.55541 L 188.35056,157.36292 v -46.99581 z"
           inkscape:box3dsidetype="6"
           style="fill:#353564;fill-rule:evenodd;stroke:none;stroke-width:2.26066685;stroke-linejoin:round"
           id="path259"
           sodipodi:type="inkscape:box3dside" />
        <path
           points="186.96435,112.22642 186.96435,158.89676 188.35056,157.36292 188.35056,110.36711 "
           d="m 188.35056,110.36711 -1.38621,1.85931 v 46.67034 l 1.38621,-1.53384 z"
           inkscape:box3dsidetype="11"
           style="fill:#e9e9ff;fill-rule:evenodd;stroke:none;stroke-width:2.26066685;stroke-linejoin:round"
           id="path269"
           sodipodi:type="inkscape:box3dside" />
        <path
           points="20.628644,195.06235 186.96435,158.89676 186.96435,112.22642 20.628644,108.62993 "
           d="m 20.628644,108.62993 v 86.43242 L 186.96435,158.89676 v -46.67034 z"
           inkscape:box3dsidetype="14"
           style="fill:#d7d7ff;fill-rule:evenodd;stroke:none;stroke-width:2.26066685;stroke-linejoin:round"
           id="path265"
           sodipodi:type="inkscape:box3dside" />
        <path
           points="20.628644,108.62993 186.96435,112.22642 188.35056,110.36711 21.050074,105.11922 "
           d="m 21.050074,105.11922 -0.42143,3.51071 166.335706,3.59649 1.38621,-1.85931 z"
           inkscape:box3dsidetype="5"
           style="fill:#4d4d9f;fill-rule:evenodd;stroke:none;stroke-width:2.26066685;stroke-linejoin:round"
           id="path261"
           sodipodi:type="inkscape:box3dside" />
        <path
           points="20.628644,195.06235 186.96435,158.89676 188.35056,157.36292 21.050074,192.67463 "
           d="m 21.050074,192.67463 -0.42143,2.38772 166.335706,-36.16559 1.38621,-1.53384 z"
           inkscape:box3dsidetype="13"
           style="fill:#afafde;fill-rule:evenodd;stroke:none;stroke-width:2.26066685;stroke-linejoin:round"
           id="path267"
           sodipodi:type="inkscape:box3dside" />
        <path
           points="20.628644,108.62993 20.628644,195.06235 21.050074,192.67463 21.050074,105.11922 "
           d="m 21.050074,105.11922 -0.42143,3.51071 v 86.43242 l 0.42143,-2.38772 z"
           inkscape:box3dsidetype="3"
           style="fill:#8686bf;fill-rule:evenodd;stroke:none;stroke-width:2.26066685;stroke-linejoin:round"
           id="path263"
           sodipodi:type="inkscape:box3dside" />
      </g>
      <path
         transform="matrix(1.8110292,0,0,2.8219395,-10.438385,-23.154257)"
         d="m 101.29762,31.660713 c 0.42458,0.784904 -0.84856,0.959567 -1.304559,0.705677 -1.235729,-0.688027 -0.943502,-2.446329 -0.106791,-3.314801 1.49668,-1.553491 4.02664,-1.033998 5.32504,0.492095 1.90545,2.239602 1.13401,5.630861 -1.09098,7.335277 -2.96556,2.271719 -7.243892,1.238482 -9.345517,-1.689866 -2.644682,-3.685027 -1.345349,-8.861197 2.288751,-11.355754 4.401386,-3.021242 10.480926,-1.453615 13.365996,2.887637 3.39994,5.116016 1.56276,12.102178 -3.48653,15.376231 -5.8296,3.780024 -13.724432,1.672501 -17.386465,-4.085408 -4.161035,-6.542502 -1.782649,-15.347404 4.684294,-19.396708 7.254931,-4.542707 16.970891,-1.893093 21.406941,5.28318 4.92487,7.967023 2.00377,18.59476 -5.88206,23.417184"
         sodipodi:t0="0"
         sodipodi:argument="-17.774612"
         sodipodi:radius="17.798315"
         sodipodi:revolution="3"
         sodipodi:expansion="1"
         sodipodi:cy="31.660713"
         sodipodi:cx="101.29762"
         id="path271"
         style="fill:none;fill-rule:evenodd;stroke:#000000;stroke-width:0.26458332"
         sodipodi:type="spiral" />
    </g>
  </g>
</svg>
